<svg
   xmlns:dc="http://purl.org/dc/elements/1/"
   xmlns:cc="http://creativecommons.org/ns#"
   xmlns:rdf="http://www.w3org/1999/2/22-rdf-syntax-ns#"
   xmlns:svg="http://www.w3.org/2000/svg"
   xmlns="http://www.w3.org/2000/svg"
   viewBox="0 0 820 936"
   height="936"
   width="820"
   xml:space="preserve"
   version="1"
   id="svg4155"><metadata
     id="metadata4161"><rdf:RDF><cc:Work
         rdf:about=""><dc:format>image/svg+xml</dc:format><dc:type
           rdf:resource="http://purl.org/dc/dcmitype/StillImage" /><dc:title></dc:title></cc:Work></rdf:RDF></metadata><defs
     id="defs4159"><clipPath
       id="clipPath4169"
       clipPathUnits="userSpaceOnUse"><path
         id="path4171"
         d="m 0,749 656,0 L 656,0 0,0 0,749 Z" /></clipPath></defs><g
     transform="matrix(1,0,0,-1,0,936)"
     id="g4163"><g
       id="g4165"><g
         clip-path="url(#clipPath4169)"
         id="g4167"><g
           transform="translate(600,449)"
           id="g4173"><path
             id="path4175"
             style="fill:#100f0d;fill-opacity:1;fill-rule:nonzero;stroke:none"
             d="m 0,0 c -10,-20 -26,-39 -46,-55 -33,-27 -86,-51 -127,-28 l -12,7 2,-14 c 2,-12 6,-21 13,-31 -0,-0 -0,-0 -1,-0 -47,0 -83,38 -93,53 29,3 51,18 51,36 0,8 -5,16 -13,22 20,37 82,44 119,46 l 0,-0 c -2,-3 -4,-6 -6,-10 l -4,-7 7,-3 c 23,-10 48,-13 69,-8 20,5 36,16 49,34 C 10,27 7,14 0,0 m -236,-116 c 7,-4 14,-7 23,-10 -3,-7 -7,-17 -15,-26 -2,13 -5,26 -8,36 m 82,-51 c 0,5 1,21 -4,29 -12,-18 -73,-67 -117,-84 -44,17 -105,66 -117,84 -5,-9 -4,-24 -4,-29 -29,13 -59,44 -69,70 19,-7 37,-10 53,-10 10,0 20,1 29,4 -3,-7 -29,-32 -29,-32 l 11,-2 c 17,-2 35,-0 51,4 4,-11 13,-30 31,-43 l 12,-10 -1,16 c -1,22 9,50 14,62 0,1 1,3 1,4 7,7 14,15 18,23 4,-7 11,-15 17,-22 0,-1 1,-3 2,-5 4,-12 14,-40 14,-62 l -1,-16 12,10 c 17,13 26,32 31,44 16,-5 35,-7 52,-4 l 11,2 c 0,0 -27,25 -29,32 9,-3 19,-4 29,-4 16,-0 34,3 51,9 -10,-26 -40,-57 -69,-69 m -159,50 c -3,-10 -7,-23 -8,-35 -7,9 -12,18 -14,25 8,3 16,7 23,10 M -547,0 c -7,14 -10,27 -10,40 12,-17 29,-29 49,-34 21,-5 46,-2 69,8 l 7,3 -4,7 c -2,4 -4,7 -6,10 37,-1 99,-8 119,-45 -8,-6 -13,-14 -13,-22 0,-18 22,-33 52,-36 -10,-15 -46,-53 -93,-53 -0,0 -0,0 -1,0 7,10 11,18 13,31 l 2,14 -12,-7 c -40,-22 -93,1 -127,28 -20,16 -36,36 -46,55 m 40,54 c 0,25 20,45 45,45 16,0 30,-8 38,-21 -6,-7 -11,-14 -14,-19 -9,7 -32,13 -44,11 12,-3 30,-13 37,-19 -5,0 -10,0 -14,0 l -22,0 18,-15 c 7,-5 9,-8 11,-12 -12,-4 -24,-7 -36,-7 -12,8 -19,22 -19,36 m 107,86 6,-5 c 11,-10 20,-13 24,-20 -8,-2 -16,-5 -22,-10 l -7,34 z m -6,34 c 1,3 7,7 12,11 13,10 27,18 41,25 -5,-11 -14,-25 7,-65 -9,45 -4,52 9,72 16,6 33,10 49,12 17,-17 25,-22 28,-71 10,51 -5,60 -13,71 l -5,1 c 25,2 48,-1 67,-6 8,-2 19,-6 21,-16 l 9,-46 c -24,-6 -46,-14 -62,-22 -26,-2 -57,-7 -70,-11 -24,15 -52,23 -76,22 l -12,-2 -3,16 c -0,1 -0,2 -1,3 -1,5 -1,6 -1,7 m 58,62 c 7,6 16,10 27,13 11,2 22,3 30,0 2,-0 4,-1 7,-3 -6,-1 -12,-1 -19,-2 -18,-3 -36,-8 -53,-16 1,3 4,6 6,8 m 242,-81 c 19,-1 24,-6 25,-7 0,-1 -2,-7 -20,-16 -16,-8 -38,-16 -63,-21 l 0,-0 c -4,2 -8,3 -13,4 4,6 13,10 24,20 l 5,5 c 16,4 45,6 46,-2 13,14 -16,14 -40,10 l -16,3 c -2,0 -5,0 -7,0 22,4 42,6 59,5 m -132,-31 c -2,-1 -3,-2 -5,-4 -20,-16 -23,-26 -31,-35 -7,8 -8,16 -25,30 16,3 41,7 60,8 m 95,-51 c -18,8 -38,14 -51,13 l -9,-1 2,-8 c 0,-2 1,-3 1,-5 -31,13 -52,7 -74,-13 -22,20 -44,26 -74,13 1,2 1,3 1,5 l 2,8 -9,1 c -13,1 -33,-5 -51,-13 12,13 29,26 46,31 l 9,2 -4,8 c -4,8 -7,12 -12,17 30,-4 58,-24 85,-53 1,-1 5,-6 6,-7 1,2 5,6 6,7 27,30 56,49 85,53 -5,-5 -8,-10 -12,-17 l -4,-8 9,-2 c 18,-5 34,-18 46,-31 m 5,-26 c -3,4 -8,9 -15,14 9,-4 18,-8 26,-13 -4,-0 -8,-1 -11,-1 m -33,-6 -7,18 c -1,2 -1,4 -2,6 -1,2 -1,4 -2,6 10,-7 21,-18 27,-26 -5,-1 -10,-2 -15,-3 -0,-0 -1,-0 -1,-0 m -186,9 c 37,22 61,15 76,6 5,-11 8,-44 1,-54 -11,-1 -21,-3 -29,-7 -11,20 -32,36 -64,45 l 16,10 z m -6,20 c -1,-2 -1,-3 -2,-5 -1,-2 -2,-4 -2,-6 l -7,-18 c -0,0 -0,0 -1,0 -5,1 -10,2 -15,3 7,8 17,19 27,26 m -44,-23 c -4,0 -8,1 -12,1 8,5 17,9 27,13 -6,-6 -12,-11 -15,-15 M -266,3 c -7,10 -4,43 1,54 l -0,0 c 14,9 39,16 75,-6 l 16,-10 c -31,-9 -53,-25 -63,-45 -8,4 -18,6 -29,7 m 182,96 c 25,0 45,-20 45,-45 0,-14 -7,-28 -19,-36 -12,-0 -25,2 -36,7 2,4 4,7 11,12 L -66,51 -88,51 c -4,-0 -9,-0 -14,-0 7,6 25,16 37,19 -13,2 -37,-4 -45,-11 -3,5 -8,12 -14,19 8,13 23,22 38,22 M 15,79 C 12,73 8,63 8,63 -3,41 -18,28 -34,22 c 6,10 9,21 9,32 0,33 -27,60 -60,60 -20,0 -37,-9 -49,-25 -4,4 -9,8 -13,12 20,5 38,12 52,19 20,11 30,22 27,32 -2,11 -15,17 -38,18 -18,1 -40,-1 -63,-5 l -9,46 c -3,14 -14,25 -32,30 -18,5 -37,7 -56,7 -3,8 -11,13 -22,16 -11,3 -24,3 -38,-0 -13,-3 -25,-9 -34,-16 -9,-8 -14,-17 -12,-27 -11,-6 -22,-13 -33,-21 l -0,-0 c -18,-15 -20,-22 -17,-35 0,-1 0,-2 1,-3 l 13,-65 c -3,-2 -5,-5 -8,-7 -11,15 -29,25 -48,25 -33,0 -60,-27 -60,-60 0,-12 3,-23 10,-32 -17,6 -32,19 -42,41 0,0 -4,9 -8,16 -21,-57 1,-110 48,-148 10,-8 20,-15 31,-20 2,-41 52,-90 92,-102 l 10,-3 c 0,0 -3,20 -3,23 21,-20 67,-54 103,-68 0,0 4,-1 6,-2 2,1 6,2 6,2 36,15 82,48 103,68 -0,-3 -3,-23 -3,-23 l 10,3 c 39,12 89,61 92,101 11,5 23,12 33,21 47,38 69,92 48,148" /></g><g
           transform="translate(600,449)"
           id="g4177"><path
             id="path4179"
             style="fill:none;stroke:#37ab9c;stroke-width:11;stroke-linecap:butt;stroke-linejoin:miter;stroke-miterlimit:10;stroke-dasharray:none;stroke-opacity:1"
             d="m 0,0 c -10,-20 -26,-39 -46,-55 -33,-27 -86,-51 -127,-28 l -12,7 2,-14 c 2,-12 6,-21 13,-31 -0,-0 -0,-0 -1,-0 -47,0 -83,38 -93,53 29,3 51,18 51,36 0,8 -5,16 -13,22 20,37 82,44 119,46 l 0,-0 c -2,-3 -4,-6 -6,-10 l -4,-7 7,-3 c 23,-10 48,-13 69,-8 20,5 36,16 49,34 C 10,27 7,14 0,0 Z m -236,-116 c 7,-4 14,-7 23,-10 -3,-7 -7,-17 -15,-26 -2,13 -5,26 -8,36 z m 82,-51 c 0,5 1,21 -4,29 -12,-18 -73,-67 -117,-84 -44,17 -105,66 -117,84 -5,-9 -4,-24 -4,-29 -29,13 -59,44 -69,70 19,-7 37,-10 53,-10 10,0 20,1 29,4 -3,-7 -29,-32 -29,-32 l 11,-2 c 17,-2 35,-0 51,4 4,-11 13,-30 31,-43 l 12,-10 -1,16 c -1,22 9,50 14,62 0,1 1,3 1,4 7,7 14,15 18,23 4,-7 11,-15 17,-22 0,-1 1,-3 2,-5 4,-12 14,-40 14,-62 l -1,-16 12,10 c 17,13 26,32 31,44 16,-5 35,-7 52,-4 l 11,2 c 0,0 -27,25 -29,32 9,-3 19,-4 29,-4 16,-0 34,3 51,9 -10,-26 -40,-57 -69,-69 z m -159,50 c -3,-10 -7,-23 -8,-35 -7,9 -12,18 -14,25 8,3 16,7 23,10 z M -547,0 c -7,14 -10,27 -10,40 12,-17 29,-29 49,-34 21,-5 46,-2 69,8 l 7,3 -4,7 c -2,4 -4,7 -6,10 37,-1 99,-8 119,-45 -8,-6 -13,-14 -13,-22 0,-18 22,-33 52,-36 -10,-15 -46,-53 -93,-53 -0,0 -0,0 -1,0 7,10 11,18 13,31 l 2,14 -12,-7 c -40,-22 -93,1 -127,28 -20,16 -36,36 -46,55 z m 40,54 c 0,25 20,45 45,45 16,0 30,-8 38,-21 -6,-7 -11,-14 -14,-19 -9,7 -32,13 -44,11 12,-3 30,-13 37,-19 -5,0 -10,0 -14,0 l -22,0 18,-15 c 7,-5 9,-8 11,-12 -12,-4 -24,-7 -36,-7 -12,8 -19,22 -19,36 z m 107,86 6,-5 c 11,-10 20,-13 24,-20 -8,-2 -16,-5 -22,-10 l -7,34 z m -6,34 c 1,3 7,7 12,11 13,10 27,18 41,25 -5,-11 -14,-25 7,-65 -9,45 -4,52 9,72 16,6 33,10 49,12 17,-17 25,-22 28,-71 10,51 -5,60 -13,71 l -5,1 c 25,2 48,-1 67,-6 8,-2 19,-6 21,-16 l 9,-46 c -24,-6 -46,-14 -62,-22 -26,-2 -57,-7 -70,-11 -24,15 -52,23 -76,22 l -12,-2 -3,16 c -0,1 -0,2 -1,3 -1,5 -1,6 -1,7 z m 58,62 c 7,6 16,10 27,13 11,2 22,3 30,0 2,-0 4,-1 7,-3 -6,-1 -12,-1 -19,-2 -18,-3 -36,-8 -53,-16 1,3 4,6 6,8 z m 242,-81 c 19,-1 24,-6 25,-7 0,-1 -2,-7 -20,-16 -16,-8 -38,-16 -63,-21 l 0,-0 c -4,2 -8,3 -13,4 4,6 13,10 24,20 l 5,5 c 16,4 45,6 46,-2 13,14 -16,14 -40,10 l -16,3 c -2,0 -5,0 -7,0 22,4 42,6 59,5 z m -132,-31 c -2,-1 -3,-2 -5,-4 -20,-16 -23,-26 -31,-35 -7,8 -8,16 -25,30 16,3 41,7 60,8 z m 95,-51 c -18,8 -38,14 -51,13 l -9,-1 2,-8 c 0,-2 1,-3 1,-5 -31,13 -52,7 -74,-13 -22,20 -44,26 -74,13 1,2 1,3 1,5 l 2,8 -9,1 c -13,1 -33,-5 -51,-13 12,13 29,26 46,31 l 9,2 -4,8 c -4,8 -7,12 -12,17 30,-4 58,-24 85,-53 1,-1 5,-6 6,-7 1,2 5,6 6,7 27,30 56,49 85,53 -5,-5 -8,-10 -12,-17 l -4,-8 9,-2 c 18,-5 34,-18 46,-31 z m 5,-26 c -3,4 -8,9 -15,14 9,-4 18,-8 26,-13 -4,-0 -8,-1 -11,-1 z m -33,-6 -7,18 c -1,2 -1,4 -2,6 -1,2 -1,4 -2,6 10,-7 21,-18 27,-26 -5,-1 -10,-2 -15,-3 -0,-0 -1,-0 -1,-0 z m -186,9 c 37,22 61,15 76,6 5,-11 8,-44 1,-54 -11,-1 -21,-3 -29,-7 -11,20 -32,36 -64,45 l 16,10 z m -6,20 c -1,-2 -1,-3 -2,-5 -1,-2 -2,-4 -2,-6 l -7,-18 c -0,0 -0,0 -1,0 -5,1 -10,2 -15,3 7,8 17,19 27,26 z m -44,-23 c -4,0 -8,1 -12,1 8,5 17,9 27,13 -6,-6 -12,-11 -15,-15 z M -266,3 c -7,10 -4,43 1,54 l -0,0 c 14,9 39,16 75,-6 l 16,-10 c -31,-9 -53,-25 -63,-45 -8,4 -18,6 -29,7 z m 182,96 c 25,0 45,-20 45,-45 0,-14 -7,-28 -19,-36 -12,-0 -25,2 -36,7 2,4 4,7 11,12 L -66,51 -88,51 c -4,-0 -9,-0 -14,-0 7,6 25,16 37,19 -13,2 -37,-4 -45,-11 -3,5 -8,12 -14,19 8,13 23,22 38,22 z M 15,79 C 12,73 8,63 8,63 -3,41 -18,28 -34,22 c 6,10 9,21 9,32 0,33 -27,60 -60,60 -20,0 -37,-9 -49,-25 -4,4 -9,8 -13,12 20,5 38,12 52,19 20,11 30,22 27,32 -2,11 -15,17 -38,18 -18,1 -40,-1 -63,-5 l -9,46 c -3,14 -14,25 -32,30 -18,5 -37,7 -56,7 -3,8 -11,13 -22,16 -11,3 -24,3 -38,-0 -13,-3 -25,-9 -34,-16 -9,-8 -14,-17 -12,-27 -11,-6 -22,-13 -33,-21 l -0,-0 c -18,-15 -20,-22 -17,-35 0,-1 0,-2 1,-3 l 13,-65 c -3,-2 -5,-5 -8,-7 -11,15 -29,25 -48,25 -33,0 -60,-27 -60,-60 0,-12 3,-23 10,-32 -17,6 -32,19 -42,41 0,0 -4,9 -8,16 -21,-57 1,-110 48,-148 10,-8 20,-15 31,-20 2,-41 52,-90 92,-102 l 10,-3 c 0,0 -3,20 -3,23 21,-20 67,-54 103,-68 0,0 4,-1 6,-2 2,1 6,2 6,2 36,15 82,48 103,68 -0,-3 -3,-23 -3,-23 l 10,3 c 39,12 89,61 92,101 11,5 23,12 33,21 47,38 69,92 48,148 z" /></g><g
           transform="translate(347,500)"
           id="g4181"><path
             id="path4183"
             style="fill:#100f0d;fill-opacity:1;fill-rule:nonzero;stroke:none"
             d="m 0,0 c -9,-2 -14,-13 -12,-25 2,-12 11,-21 20,-19 9,2 14,13 12,25 C 18,-7 9,2 0,0" /></g><g
           transform="translate(347,500)"
           id="g4185"><path
             id="path4187"
             style="fill:none;stroke:#37ab9c;stroke-width:11;stroke-linecap:butt;stroke-linejoin:miter;stroke-miterlimit:10;stroke-dasharray:none;stroke-opacity:1"
             d="m 0,0 c -9,-2 -14,-13 -12,-25 2,-12 11,-21 20,-19 9,2 14,13 12,25 C 18,-7 9,2 0,0 Z" /></g><g
           transform="translate(295,456)"
           id="g4189"><path
             id="path4191"
             style="fill:#100f0d;fill-opacity:1;fill-rule:nonzero;stroke:none"
             d="M 0,0 C 9,-2 18,7 20,19 22,32 17,43 8,44 -1,46 -10,37 -12,25 -14,13 -9,2 0,0" /></g><g
           transform="translate(295,456)"
           id="g4193"><path
             id="path4195"
             style="fill:none;stroke:#37ab9c;stroke-width:11;stroke-linecap:butt;stroke-linejoin:miter;stroke-miterlimit:10;stroke-dasharray:none;stroke-opacity:1"
             d="M 0,0 C 9,-2 18,7 20,19 22,32 17,43 8,44 -1,46 -10,37 -12,25 -14,13 -9,2 0,0 Z" /></g><g
           transform="translate(324,147)"
           id="g4197"><path
             id="path4199"
             style="fill:#40bb6a;fill-opacity:1;fill-rule:nonzero;stroke:none"
             d="m 0,0 -42,0 c -8,10 -17,16 -30,16 -10,0 -19,-4 -26,-11 -7,-7 -11,-16 -11,-27 0,-11 3,-21 10,-28 7,-7 16,-11 26,-11 12,0 22,5 28,15 l 42,0 C -9,-65 -18,-77 -28,-85 -40,-94 -54,-98 -71,-98 c -20,0 -38,7 -52,22 -14,15 -21,33 -21,55 0,21 7,39 22,54 14,14 31,21 51,21 18,0 32,-5 44,-14 C -18,31 -8,18 0,0" /></g><g
           transform="translate(324,147)"
           id="g4201"><path
             id="path4203"
             style="fill:none;stroke:#37ab9c;stroke-width:11;stroke-linecap:butt;stroke-linejoin:miter;stroke-miterlimit:10;stroke-dasharray:none;stroke-opacity:1"
             d="m 0,0 -42,0 c -8,10 -17,16 -30,16 -10,0 -19,-4 -26,-11 -7,-7 -11,-16 -11,-27 0,-11 3,-21 10,-28 7,-7 16,-11 26,-11 12,0 22,5 28,15 l 42,0 C -9,-65 -18,-77 -28,-85 -40,-94 -54,-98 -71,-98 c -20,0 -38,7 -52,22 -14,15 -21,33 -21,55 0,21 7,39 22,54 14,14 31,21 51,21 18,0 32,-5 44,-14 C -18,31 -8,18 0,0 Z" /></g><g
           transform="translate(88,98)"
           id="g4205"><path
             id="path4207"
             style="fill:#40bb6a;fill-opacity:1;fill-rule:nonzero;stroke:none"
             d="m 0,0 c 6,-7 12,-12 17,-15 6,-3 11,-5 17,-5 5,0 10,1 13,4 3,3 5,6 5,11 0,5 -1,9 -4,11 -3,3 -10,5 -20,8 -14,4 -24,9 -30,15 -6,6 -9,15 -9,25 0,14 5,25 14,34 9,9 21,13 36,13 8,0 16,-1 23,-3 7,-2 14,-5 20,-10 L 70,60 c -4,4 -9,7 -14,9 -5,2 -9,3 -14,3 -5,0 -9,-1 -12,-3 -3,-2 -4,-5 -4,-9 0,-4 1,-7 4,-9 3,-2 8,-4 15,-6 l 2,-0 c 16,-4 27,-9 32,-14 3,-4 6,-8 8,-13 2,-5 3,-11 3,-17 0,-15 -5,-28 -15,-37 -10,-9 -24,-14 -40,-14 -10,0 -19,2 -28,5 -8,3 -16,9 -24,16 L 0,0 Z" /></g><g
           transform="translate(88,98)"
           id="g4209"><path
             id="path4211"
             style="fill:none;stroke:#37ab9c;stroke-width:11;stroke-linecap:butt;stroke-linejoin:miter;stroke-miterlimit:10;stroke-dasharray:none;stroke-opacity:1"
             d="m 0,0 c 6,-7 12,-12 17,-15 6,-3 11,-5 17,-5 5,0 10,1 13,4 3,3 5,6 5,11 0,5 -1,9 -4,11 -3,3 -10,5 -20,8 -14,4 -24,9 -30,15 -6,6 -9,15 -9,25 0,14 5,25 14,34 9,9 21,13 36,13 8,0 16,-1 23,-3 7,-2 14,-5 20,-10 L 70,60 c -4,4 -9,7 -14,9 -5,2 -9,3 -14,3 -5,0 -9,-1 -12,-3 -3,-2 -4,-5 -4,-9 0,-4 1,-7 4,-9 3,-2 8,-4 15,-6 l 2,-0 c 16,-4 27,-9 32,-14 3,-4 6,-8 8,-13 2,-5 3,-11 3,-17 0,-15 -5,-28 -15,-37 -10,-9 -24,-14 -40,-14 -10,0 -19,2 -28,5 -8,3 -16,9 -24,16 L 0,0 Z" /></g><g
           transform="translate(370,127)"
           id="g4213"><path
             id="path4215"
             style="fill:#40bb6a;fill-opacity:1;fill-rule:nonzero;stroke:none"
             d="m 0,0 8,0 c 9,0 15,2 20,5 4,3 6,8 6,14 0,8 -2,13 -6,16 -4,3 -10,5 -19,5 L 0,40 0,0 Z m -39,-80 0,152 43,0 c 17,0 29,-1 35,-2 7,-2 12,-4 17,-8 5,-4 10,-9 13,-16 3,-6 4,-14 4,-21 0,-12 -3,-21 -9,-29 -6,-7 -14,-12 -25,-15 l 41,-61 -47,0 -35,60 0,-60 -39,0 z" /></g><g
           transform="translate(370,127)"
           id="g4217"><path
             id="path4219"
             style="fill:none;stroke:#37ab9c;stroke-width:11;stroke-linecap:butt;stroke-linejoin:miter;stroke-miterlimit:10;stroke-dasharray:none;stroke-opacity:1"
             d="m 0,0 8,0 c 9,0 15,2 20,5 4,3 6,8 6,14 0,8 -2,13 -6,16 -4,3 -10,5 -19,5 L 0,40 0,0 Z m -39,-80 0,152 43,0 c 17,0 29,-1 35,-2 7,-2 12,-4 17,-8 5,-4 10,-9 13,-16 3,-6 4,-14 4,-21 0,-12 -3,-21 -9,-29 -6,-7 -14,-12 -25,-15 l 41,-61 -47,0 -35,60 0,-60 -39,0 z" /></g><g
           transform="translate(600,123)"
           id="g4221"><path
             id="path4223"
             style="fill:#40bb6a;fill-opacity:1;fill-rule:nonzero;stroke:none"
             d="m 0,0 c 0,-42 -34,-76 -76,-76 -42,0 -76,34 -76,76 0,42 34,76 76,76 C -34,76 0,42 0,0" /></g><g
           transform="translate(600,123)"
           id="g4225"><path
             id="path4227"
             style="fill:none;stroke:#37ab9c;stroke-width:11;stroke-linecap:butt;stroke-linejoin:miter;stroke-miterlimit:10;stroke-dasharray:none;stroke-opacity:1"
             d="m 0,0 c 0,-42 -34,-76 -76,-76 -42,0 -76,34 -76,76 0,42 34,76 76,76 C -34,76 0,42 0,0 Z" /></g><g
           transform="translate(288,571)"
           id="g4229"><path
             id="path4231"
             style="fill:#a47343;fill-opacity:1;fill-rule:nonzero;stroke:none"
             d="m 0,0 85,4 37,15 23,-7 -21,-20 32,-17 26,-23 14,-32 c 0,0 -26,-5 -27,0 -1,5 -36,37 -36,37 l -11,-20 -32,10 -41,-1 -11,-19 -16,20 -31,0 -38,-11 0,20 -25,-9 -19,-28 -28,0 12,28 27,27 32,17 -21,20 17,3 L -5,6 0,0 Z" /></g><g
           transform="translate(39,500)"
           id="g4233"><path
             id="path4235"
             style="fill:#bf935b;fill-opacity:1;fill-rule:nonzero;stroke:none"
             d="m 0,0 38,-34 56,-5 21,14 -2,15 59,-1 39,-17 27,-18 7,-15 10,-21 41,5 24,12 12,20 35,23 30,12 69,4 -6,-17 35,-19 50,10 25,34 5,-22 -24,-62 -48,-40 -15,-19 -9,-27 -47,-40 -32,-21 -2,25 -55,-44 -56,-35 -74,50 -39,22 0,-17 -58,34 -21,41 -10,26 L 30,-88 4,-48 0,-9 0,0 Z" /></g><g
           transform="translate(39,500)"
           id="g4237"><path
             id="path4239"
             style="fill:#6f4324;fill-opacity:1;fill-rule:nonzero;stroke:none"
             d="m 0,0 52,-36 48,0 15,10 -6,13 54,0 54,-20 22,-15 10,-32 38,-26 -11,-21 -41,-38 -50,-16 -18,0 22,38 -33,-13 -52,13 -42,30 -37,23 L 7,-53 0,-11 0,0 Z" /></g><g
           transform="translate(353,410)"
           id="g4241"><path
             id="path4243"
             style="fill:#6f4324;fill-opacity:1;fill-rule:nonzero;stroke:none"
             d="m 0,0 -24,-25 12,-23 106,-42 -14,20 -6,18 24,-5 62,5 71,52 22,45 9,28 -5,17 c 0,0 -24,-22 -27,-26 -3,-4 -32,-16 -32,-16 L 159,53 147,64 145,79 115,77 63,67 35,53 11,29 0,0 Z" /></g><g
           transform="translate(353,366)"
           id="g4245"><path
             id="path4247"
             style="fill:#6f4324;fill-opacity:1;fill-rule:nonzero;stroke:none"
             d="M 0,0 19,-27 79,-47 78,-23 0,0 Z" /></g><g
           transform="translate(323,531)"
           id="g4249"><path
             id="path4251"
             style="fill:#6f4324;fill-opacity:1;fill-rule:nonzero;stroke:none"
             d="m 0,0 -16,24 -43,26 -35,5 7,-28 -46,-28 -8,-22 36,14 23,5 0,-20 38,15 24,-4 L 0,-28 l 27,15 29,1 32,-10 0,20 16,0 37,-14 L 133,0 94,29 103,59 45,52 40,37 14,9 0,0 Z" /></g><g
           transform="translate(160,497)"
           id="g4253"><path
             id="path4255"
             style="fill:#bf935b;fill-opacity:1;fill-rule:nonzero;stroke:none"
             d="M 0,0 1,1 23,31 0,49 -36,58 -56,43 -70,22 l 0,-30 10,-27 34,2 L -5,-23 -20,0" /></g><g
           transform="translate(473,531)"
           id="g4257"><path
             id="path4259"
             style="fill:#bf935b;fill-opacity:1;fill-rule:nonzero;stroke:none"
             d="m 0,0 34,24 35,-8 23,-27 0,-28 -7,-22 -14,-7 -44,4 6,25 L 16,-28 0,0 Z" /></g><g
           transform="translate(302,350)"
           id="g4261"><path
             id="path4263"
             style="fill:#ffffff;fill-opacity:1;fill-rule:nonzero;stroke:none"
             d="M 0,0 -19,-63 -47,-25 -14,-11 0,0 Z" /></g><g
           transform="translate(351,343)"
           id="g4265"><path
             id="path4267"
             style="fill:#ffffff;fill-opacity:1;fill-rule:nonzero;stroke:none"
             d="M 0,0 12,-30 16,-56 32,-39 42,-16 16,0 0,0 Z" /></g><g
           transform="translate(194,546)"
           id="g4269"><path
             id="path4271"
             style="fill:#37ab9c;fill-opacity:1;fill-rule:nonzero;stroke:none"
             d="m 0,0 42,12 c 0,0 -24,28 -15,28 l 44,0 30,-15 36,5 37,7 57,10 0,-10 -2,-18 34,-10 32,15 29,14 7,24 c 0,0 -22,4 -25,4 l -61,0 -15,1 -8,44 -13,13 -49,19 -32,2 -11,14 -27,0 -35,-12 -13,-12 0,-11 -23,-22 L -4,86 -11,74 0,0 Z" /></g><g
           transform="translate(252,528)"
           id="g4273"><path
             id="path4275"
             style="fill:#ffffff;fill-opacity:1;fill-rule:nonzero;stroke:none"
             d="m 0,0 -23,-4 -21,-22 -2,-12 23,-8 23,-8 22,-19 12,-12 15,1 42,-7 22,1 24,24 44,20 23,8 L 186,-20 158,0 l 0,-20 L 136,-9 100,-10 76,-26 58,-15 27,-5 -12,-20 0,0 Z" /></g><g
           transform="translate(44,462)"
           id="g4277"><path
             id="path4279"
             style="fill:#5a3114;fill-opacity:1;fill-rule:nonzero;stroke:none"
             d="m 0,0 c 40,-40 133,-94 196,-64 21,-23 4,-42 16,-40 12,2 40,26 44,33 l 30,-6 -27,-35 -67,-27 -23,0 12,34 -43,-8 L 68,-83 12,-52 -1,-10 0,0 Z" /></g><g
           transform="translate(264,416)"
           id="g4281"><path
             id="path4283"
             style="fill:#5a3114;fill-opacity:1;fill-rule:nonzero;stroke:none"
             d="m 0,0 c -1,-21 7,-30 31,-43 24,-13 14,22 14,22 L 0,0 Z" /></g><g
           transform="translate(140,332)"
           id="g4285"><path
             id="path4287"
             style="fill:#a47343;fill-opacity:1;fill-rule:nonzero;stroke:none"
             d="m 0,0 c 31,-8 68,-5 73,0 5,5 14,21 14,21 L 41,18 -7,26 0,0 Z" /></g><g
           transform="translate(207,320)"
           id="g4289"><path
             id="path4291"
             style="fill:#a47343;fill-opacity:1;fill-rule:nonzero;stroke:none"
             d="m 0,0 c -7,-6 -1,-5 -17,-20 22,-4 56,-1 67,3 L 42,4 0,0 Z" /></g><g
           transform="translate(295,318)"
           id="g4293"><path
             id="path4295"
             style="fill:#a47343;fill-opacity:1;fill-rule:nonzero;stroke:none"
             d="M 0,0 C 11,6 49,38 46,44 43,49 34,56 34,56 L 14,41 0,24 0,0 Z" /></g><g
           transform="translate(153,343)"
           id="g4297"><path
             id="path4299"
             style="fill:#a47343;fill-opacity:1;fill-rule:nonzero;stroke:none"
             d="m 0,0 c 17,-20 44,-39 60,-45 15,-7 0,-11 0,-11 L 53,-78 20,-50 -16,-9 0,0 Z" /></g><g
           transform="translate(231,309)"
           id="g4301"><path
             id="path4303"
             style="fill:#a47343;fill-opacity:1;fill-rule:nonzero;stroke:none"
             d="M 0,0 C 18,-17 110,-71 123,-76 137,-81 95,-94 95,-94 L 48,-68 0,-33 -19,-11 0,0 Z" /></g><g
           transform="translate(93,531)"
           id="g4305"><path
             id="path4307"
             style="fill:#a47343;fill-opacity:1;fill-rule:nonzero;stroke:none"
             d="m 0,0 c 0,-2 1,-4 1,-6 5,-27 26,-48 49,-53 24,-5 5,-7 5,-7 l -24,-2 -19,3 -20,24 0,22" /></g><g
           transform="translate(608,462)"
           id="g4309"><path
             id="path4311"
             style="fill:#5a3114;fill-opacity:1;fill-rule:nonzero;stroke:none"
             d="m 0,0 c -40,-40 -133,-94 -196,-64 -21,-23 -4,-42 -16,-40 -12,2 -40,26 -44,33 l -30,-6 27,-35 67,-27 23,0 -12,34 43,-8 69,29 56,31 L 1,-10 0,0 Z" /></g><g
           transform="translate(388,416)"
           id="g4313"><path
             id="path4315"
             style="fill:#5a3114;fill-opacity:1;fill-rule:nonzero;stroke:none"
             d="m 0,0 c 1,-21 -7,-30 -31,-43 -24,-13 -14,22 -14,22 L 0,0 Z" /></g><g
           transform="translate(512,332)"
           id="g4317"><path
             id="path4319"
             style="fill:#a47343;fill-opacity:1;fill-rule:nonzero;stroke:none"
             d="m 0,0 c -31,-8 -68,-5 -73,0 -5,5 -14,21 -14,21 L -41,18 7,26 0,0 Z" /></g><g
           transform="translate(445,320)"
           id="g4321"><path
             id="path4323"
             style="fill:#a47343;fill-opacity:1;fill-rule:nonzero;stroke:none"
             d="m 0,0 c 7,-6 1,-5 17,-20 -22,-4 -56,-1 -67,3 L -42,4 0,0 Z" /></g><g
           transform="translate(357,318)"
           id="g4325"><path
             id="path4327"
             style="fill:#a47343;fill-opacity:1;fill-rule:nonzero;stroke:none"
             d="m 0,0 c -11,6 -49,38 -46,44 3,6 12,13 12,13 L -14,41 0,24 0,0 Z" /></g><g
           transform="translate(499,343)"
           id="g4329"><path
             id="path4331"
             style="fill:#a47343;fill-opacity:1;fill-rule:nonzero;stroke:none"
             d="m 0,0 c -17,-20 -44,-39 -60,-45 -15,-7 0,-11 0,-11 l 7,-22 33,28 L 16,-9 0,0 Z" /></g><g
           transform="translate(421,309)"
           id="g4333"><path
             id="path4335"
             style="fill:#a47343;fill-opacity:1;fill-rule:nonzero;stroke:none"
             d="m 0,0 c -18,-17 -110,-71 -123,-76 -13,-5 28,-18 28,-18 L -48,-68 0,-33 19,-11 0,0 Z" /></g><g
           transform="translate(559,531)"
           id="g4337"><path
             id="path4339"
             style="fill:#a47343;fill-opacity:1;fill-rule:nonzero;stroke:none"
             d="m 0,0 c -0,-2 -1,-4 -1,-6 -5,-27 -26,-48 -49,-53 -24,-5 -5,-7 -5,-7 l 24,-2 19,3 20,24 0,22" /></g><g
           transform="translate(147,541)"
           id="g4341"><path
             id="path4343"
             style="fill:#ffffff;fill-opacity:1;fill-rule:nonzero;stroke:none"
             d="m 0,0 c 0,-2 -5,-4 -11,-4 -6,0 -11,2 -11,4 0,2 5,4 11,4 C -5,4 0,2 0,0" /></g><g
           transform="translate(305,562)"
           id="g4345"><path
             id="path4347"
             style="fill:#a47343;fill-opacity:1;fill-rule:nonzero;stroke:none"
             d="m 0,0 c 17,1 44,-1 49,1 5,2 11,15 11,15 L 2,14 -17,9 0,0 Z" /></g><g
           transform="translate(449,595)"
           id="g4349"><path
             id="path4351"
             style="fill:#205a52;fill-opacity:1;fill-rule:nonzero;stroke:none"
             d="m 0,0 c 116,8 -5,-35 -16,-37 -11,-2 -22,4 -22,4 L -16,-9 0,0 Z" /></g><g
           transform="translate(387,416)"
           id="g4353"><path
             id="path4355"
             style="fill:#100f0d;fill-opacity:1;fill-rule:nonzero;stroke:none"
             d="m 0,0 c 0,-20 -28,-36 -62,-36 -34,0 -62,16 -62,36 0,20 28,36 62,36 C -28,36 0,20 0,0" /></g><g
           transform="translate(325,440)"
           id="g4357"><path
             id="path4359"
             style="fill:#ffffff;fill-opacity:1;fill-rule:nonzero;stroke:none"
             d="m 0,0 c 1,-5 -7,-10 -17,-12 -10,-2 -19,1 -20,6 -1,5 7,10 17,12 C -10,7 -1,5 0,0" /></g><g
           transform="translate(312,446)"
           id="g4361"><path
             id="path4363"
             style="fill:#100f0d;fill-opacity:1;fill-rule:nonzero;stroke:none"
             d="m 0,0 c -2,0 -4,-0 -6,-0 -5,-1 -9,-2 -12,-4 -3,-2 -5,-4 -4,-6 1,-3 6,-6 13,-6 2,0 4,0 6,0 10,2 17,7 17,11 C 13,-2 7,0 0,0 m -9,-18 c -8,0 -14,3 -14,7 -0,3 1,5 5,7 3,2 8,4 13,5 2,0 4,0 6,0 8,0 14,-3 14,-7 1,-5 -7,-10 -18,-12 -2,-0 -4,-0 -6,-0" /></g><g
           transform="translate(200,314)"
           id="g4365"><path
             id="path4367"
             style="fill:#100f0d;fill-opacity:1;fill-rule:nonzero;stroke:none"
             d="m 0,0 -11,2 c 0,0 27,25 29,32 -9,-3 -19,-4 -29,-4 -31,-0 -71,11 -103,37 -47,38 -69,92 -48,148 3,-7 8,-16 8,-16 23,-49 66,-52 102,-39 -2,4 -4,7 -11,12 l -18,15 22,-0 c 22,-0 54,-1 83,-9 35,-9 58,-27 68,-50 l -13,-6 c -18,40 -83,47 -121,49 2,-3 4,-6 6,-10 l 4,-7 -7,-3 c -23,-10 -48,-13 -69,-8 -20,5 -36,16 -49,34 -0,-13 3,-26 10,-40 10,-20 26,-39 46,-55 C -68,53 -15,29 25,52 L 37,58 35,45 C 33,32 29,23 23,14 c 0,-0 0,-0 1,-0 54,0 94,51 96,58 -0,-0 -0,-0 -0,-1 l 14,0 C 133,63 119,42 105,30 90,17 42,-6 0,0" /></g><g
           transform="translate(452,314)"
           id="g4369"><path
             id="path4371"
             style="fill:#100f0d;fill-opacity:1;fill-rule:nonzero;stroke:none"
             d="m 0,0 11,2 c 0,0 -27,25 -29,32 9,-3 19,-4 29,-4 31,-0 71,11 103,37 47,38 69,92 48,148 -3,-7 -8,-16 -8,-16 -23,-49 -66,-52 -102,-39 2,4 4,7 11,12 l 18,15 -22,-0 c -22,-0 -54,-1 -83,-9 -35,-9 -58,-27 -68,-50 l 13,-6 c 18,40 83,47 121,49 -2,-3 -4,-6 -6,-10 l -4,-7 7,-3 c 23,-10 48,-13 69,-8 20,5 36,16 49,34 0,-13 -3,-26 -10,-40 C 138,116 121,96 102,80 68,53 15,29 -25,52 l -12,7 2,-14 c 2,-12 6,-21 13,-31 -0,-0 -0,-0 -1,-0 -54,0 -94,51 -96,58 0,-0 0,-0 0,-1 l -14,0 c -0,-9 14,-29 28,-41 C -90,17 -42,-6 0,0" /></g><g
           transform="translate(367,481)"
           id="g4373"><path
             id="path4375"
             style="fill:#100f0d;fill-opacity:1;fill-rule:nonzero;stroke:none"
             d="m 0,0 c 2,-12 -3,-23 -12,-25 -9,-2 -18,7 -20,19 -2,12 3,23 12,25 C -11,21 -2,12 0,0" /></g><g
           transform="translate(356,484)"
           id="g4377"><path
             id="path4379"
             style="fill:#ffffff;fill-opacity:1;fill-rule:nonzero;stroke:none"
             d="m 0,0 c 1,-5 -2,-9 -5,-10 -4,-1 -8,3 -8,7 -1,5 2,9 5,10 C -5,8 -1,5 0,0" /></g><g
           transform="translate(283,481)"
           id="g4381"><path
             id="path4383"
             style="fill:#100f0d;fill-opacity:1;fill-rule:nonzero;stroke:none"
             d="m 0,0 c -2,-12 3,-23 12,-25 9,-2 18,7 20,19 C 34,7 28,18 20,19 11,21 2,12 0,0" /></g><g
           transform="translate(295,484)"
           id="g4385"><path
             id="path4387"
             style="fill:#ffffff;fill-opacity:1;fill-rule:nonzero;stroke:none"
             d="m 0,0 c -1,-5 2,-9 5,-10 4,-1 8,3 8,7 C 15,2 12,6 8,7 5,8 1,5 0,0" /></g><g
           transform="translate(533,365)"
           id="g4389"><path
             id="path4391"
             style="fill:#100f0d;fill-opacity:1;fill-rule:nonzero;stroke:none"
             d="m 0,0 -15,1 c -2,-29 -38,-69 -72,-84 0,5 1,21 -4,29 -12,-18 -73,-67 -117,-84 -44,17 -105,66 -117,84 -5,-9 -4,-24 -4,-29 -34,15 -70,56 -72,84 L -416,0 c -2,-42 50,-94 92,-107 l 10,-3 c 0,0 -3,20 -3,23 21,-20 67,-54 103,-68 0,0 4,-1 6,-2 2,1 6,2 6,2 36,15 82,48 103,68 -0,-3 -3,-23 -3,-23 l 10,3 C -50,-94 2,-42 0,0" /></g><g
           transform="translate(293,265)"
           id="g4393"><path
             id="path4395"
             style="fill:#100f0d;fill-opacity:1;fill-rule:nonzero;stroke:none"
             d="M 0,0 -12,10 C -33,26 -42,49 -45,59 l 14,4 c 2,-6 7,-19 16,-31 3,20 10,41 13,51 1,2 1,4 2,5 L 15,83 C 14,82 14,80 13,78 9,66 -1,37 -1,16 L 0,0 Z" /></g><g
           transform="translate(358,265)"
           id="g4397"><path
             id="path4399"
             style="fill:#100f0d;fill-opacity:1;fill-rule:nonzero;stroke:none"
             d="m 0,0 1,16 c 1,22 -9,50 -14,62 -1,2 -1,4 -2,5 l 14,4 c 0,-1 1,-3 2,-5 4,-10 11,-31 13,-51 10,12 15,25 16,31 L 45,59 C 42,49 33,26 12,10 L 0,0 Z" /></g><g
           transform="translate(405,536)"
           id="g4401"><path
             id="path4403"
             style="fill:#100f0d;fill-opacity:1;fill-rule:nonzero;stroke:none"
             d="m 0,0 -9,-1 2,-8 c 0,-2 1,-3 1,-5 -31,13 -52,7 -74,-13 -22,20 -44,26 -74,13 1,2 1,3 1,5 l 2,8 -9,1 c -13,1 -33,-5 -51,-13 12,13 29,26 46,31 l 9,2 -4,8 c -4,8 -7,12 -12,17 30,-4 58,-24 85,-53 1,-1 5,-6 6,-7 1,2 5,6 6,7 27,30 56,49 85,53 C 7,41 4,37 -0,29 L -4,20 5,18 C 22,13 39,-0 51,-13 33,-5 13,1 0,0 m 98,-58 -10,26 c -6,13 -34,53 -70,62 4,6 13,10 24,20 L 55,61 37,64 C 9,65 -24,55 -49,35 -69,19 -72,9 -80,0 c -7,8 -9,18 -31,35 -25,20 -58,30 -86,29 l -18,-3 14,-12 c 11,-10 20,-13 24,-20 -36,-9 -63,-49 -70,-62 l -10,-26 24,17 c 17,11 44,24 62,26 -1,-2 -1,-4 -2,-6 -1,-2 -2,-4 -2,-6 l -7,-20 18,11 c 40,24 65,14 79,4 1,-1 4,-3 6,-5 3,2 4,4 6,5 14,10 39,21 79,-4 l 18,-11 -7,20 c -1,2 -1,4 -2,6 -1,2 -1,4 -2,6 18,-3 46,-15 62,-26 l 24,-17 z" /></g><g
           transform="translate(317,506)"
           id="g4405"><path
             id="path4407"
             style="fill:#100f0d;fill-opacity:1;fill-rule:nonzero;stroke:none"
             d="m 0,0 c 5,-11 8,-48 0,-56 -8,-8 13,-6 13,-6 L 11,0 0,0 Z" /></g><g
           transform="translate(335,506)"
           id="g4409"><path
             id="path4411"
             style="fill:#100f0d;fill-opacity:1;fill-rule:nonzero;stroke:none"
             d="m 0,0 c -5,-11 -8,-48 0,-56 8,-8 -13,-6 -13,-6 L -11,0 0,0 Z" /></g><g
           transform="translate(203,487)"
           id="g4413"><path
             id="path4415"
             style="fill:#100f0d;fill-opacity:1;fill-rule:nonzero;stroke:none"
             d="m 0,0 -14,7 c 5,8 27,26 41,36 L 33,33 C 20,24 5,7 0,0" /></g><g
           transform="translate(449,487)"
           id="g4417"><path
             id="path4419"
             style="fill:#100f0d;fill-opacity:1;fill-rule:nonzero;stroke:none"
             d="M 0,0 14,7 C 8,15 -13,33 -28,43 L -33,33 C -20,24 -5,7 0,0" /></g><g
           transform="translate(102,455)"
           id="g4421"><path
             id="path4423"
             style="fill:#100f0d;fill-opacity:1;fill-rule:nonzero;stroke:none"
             d="m 0,0 c -16,11 -25,29 -25,49 0,33 27,60 60,60 22,0 43,-12 53,-32 L 74,69 c -8,15 -23,24 -40,24 -25,0 -45,-20 -45,-45 0,-14 7,-28 19,-37 L 0,0 Z" /></g><g
           transform="translate(163,506)"
           id="g4425"><path
             id="path4427"
             style="fill:#100f0d;fill-opacity:1;fill-rule:nonzero;stroke:none"
             d="M 0,0 C -6,8 -33,15 -46,13 -32,9 -8,-5 -7,-9" /></g><g
           transform="translate(550,455)"
           id="g4429"><path
             id="path4431"
             style="fill:#100f0d;fill-opacity:1;fill-rule:nonzero;stroke:none"
             d="m 0,0 -9,12 c 12,8 19,22 19,37 0,25 -20,45 -45,45 -17,0 -32,-9 -40,-24 l -13,7 c 10,20 31,32 53,32 C -2,108 25,82 25,49 25,29 16,11 0,0" /></g><g
           transform="translate(489,506)"
           id="g4433"><path
             id="path4435"
             style="fill:#100f0d;fill-opacity:1;fill-rule:nonzero;stroke:none"
             d="M 0,0 C 6,8 33,15 46,13 32,9 8,-5 7,-9" /></g><g
           transform="translate(195,535)"
           id="g4437"><path
             id="path4439"
             style="fill:#100f0d;fill-opacity:1;fill-rule:nonzero;stroke:none"
             d="m 0,0 -15,76 c -0,1 -0,2 -1,3 -3,14 -1,20 17,35 l 0,0 c 30,23 64,38 101,45 32,5 64,4 93,-4 18,-5 29,-16 32,-30 l 15,-76 -15,-3 -15,76 c -2,10 -13,14 -21,16 C 145,151 72,148 11,100 5,96 -0,92 -2,89 c -1,-1 -0,-3 1,-7 0,-1 0,-2 1,-3 L 15,3 0,0 Z" /></g><g
           transform="translate(288,563)"
           id="g4441"><path
             id="path4443"
             style="fill:#100f0d;fill-opacity:1;fill-rule:nonzero;stroke:none"
             d="M 0,0 -5,14 C 12,20 80,29 101,27 L 99,12 C 81,14 14,5 0,0" /></g><g
           transform="translate(264,669)"
           id="g4445"><path
             id="path4447"
             style="fill:#100f0d;fill-opacity:1;fill-rule:nonzero;stroke:none"
             d="M 0,0 C -14,-22 -20,-27 -11,-74 -33,-30 -21,-18 -16,-6" /></g><g
           transform="translate(308,681)"
           id="g4449"><path
             id="path4451"
             style="fill:#100f0d;fill-opacity:1;fill-rule:nonzero;stroke:none"
             d="m 0,0 c 19,-19 27,-22 30,-73 10,51 -5,60 -13,71" /></g><g
           transform="translate(438,546)"
           id="g4453"><path
             id="path4455"
             style="fill:#100f0d;fill-opacity:1;fill-rule:nonzero;stroke:none"
             d="M 0,0 -3,15 C 21,20 44,27 60,36 77,45 80,51 79,52 79,53 74,57 55,59 37,60 13,57 -11,52 -38,46 -62,38 -78,29 l -7,13 c 17,10 43,19 71,25 26,6 51,8 70,7 C 79,72 92,66 94,55 96,44 87,33 67,23 49,14 26,6 0,0" /></g><g
           transform="translate(437,591)"
           id="g4457"><path
             id="path4459"
             style="fill:#100f0d;fill-opacity:1;fill-rule:nonzero;stroke:none"
             d="M 0,0 C 20,9 78,15 61,-4 60,6 15,1 7,-5" /></g><g
           transform="translate(229,669)"
           id="g4461"><path
             id="path4463"
             style="fill:#100f0d;fill-opacity:1;fill-rule:nonzero;stroke:none"
             d="m 0,0 c -2,10 2,19 12,28 8,7 20,13 34,16 13,3 27,3 38,0 13,-3 21,-10 23,-20 L 91,21 C 90,26 83,29 79,30 71,32 60,32 49,29 38,27 28,22 21,17 18,14 13,9 14,3 L 0,0 Z" /></g><g
           transform="translate(324,147)"
           id="g4465"><path
             id="path4467"
             style="fill:#100f0d;fill-opacity:1;fill-rule:nonzero;stroke:none"
             d="m 0,0 -42,0 c -8,10 -17,16 -30,16 -10,0 -19,-4 -26,-11 -7,-7 -11,-16 -11,-27 0,-11 3,-21 10,-28 7,-7 16,-11 26,-11 12,0 22,5 28,15 l 42,0 C -9,-65 -18,-77 -28,-85 -40,-94 -54,-98 -71,-98 c -20,0 -38,7 -52,22 -14,15 -21,33 -21,55 0,21 7,39 22,54 14,14 31,21 51,21 18,0 32,-5 44,-14 C -18,31 -8,18 0,0" /></g><g
           transform="translate(88,98)"
           id="g4469"><path
             id="path4471"
             style="fill:#100f0d;fill-opacity:1;fill-rule:nonzero;stroke:none"
             d="m 0,0 c 6,-7 12,-12 17,-15 6,-3 11,-5 17,-5 5,0 10,1 13,4 3,3 5,6 5,11 0,5 -1,9 -4,11 -3,3 -10,5 -20,8 -14,4 -24,9 -30,15 -6,6 -9,15 -9,25 0,14 5,25 14,34 9,9 21,13 36,13 8,0 16,-1 23,-3 7,-2 14,-5 20,-10 L 70,60 c -4,4 -9,7 -14,9 -5,2 -9,3 -14,3 -5,0 -9,-1 -12,-3 -3,-2 -4,-5 -4,-9 0,-4 1,-7 4,-9 3,-2 8,-4 15,-6 l 2,-0 c 16,-4 27,-9 32,-14 3,-4 6,-8 8,-13 2,-5 3,-11 3,-17 0,-15 -5,-28 -15,-37 -10,-9 -24,-14 -40,-14 -10,0 -19,2 -28,5 -8,3 -16,9 -24,16 L 0,0 Z" /></g><g
           transform="translate(370,127)"
           id="g4473"><path
             id="path4475"
             style="fill:#100f0d;fill-opacity:1;fill-rule:nonzero;stroke:none"
             d="m 0,0 8,0 c 9,0 15,2 20,5 4,3 6,8 6,14 0,8 -2,13 -6,16 -4,3 -10,5 -19,5 L 0,40 0,0 Z m -39,-80 0,152 43,0 c 17,0 29,-1 35,-2 7,-2 12,-4 17,-8 5,-4 10,-9 13,-16 3,-6 4,-14 4,-21 0,-12 -3,-21 -9,-29 -6,-7 -14,-12 -25,-15 l 41,-61 -47,0 -35,60 0,-60 -39,0 z" /></g><g
           transform="translate(600,123)"
           id="g4477"><path
             id="path4479"
             style="fill:#100f0d;fill-opacity:1;fill-rule:nonzero;stroke:none"
             d="m 0,0 c 0,-42 -34,-76 -76,-76 -42,0 -76,34 -76,76 0,42 34,76 76,76 C -34,76 0,42 0,0" /></g><g
           transform="translate(534,147)"
           id="g4481"><path
             id="path4483"
             style="fill:#37ab9c;fill-opacity:1;fill-rule:nonzero;stroke:none"
             d="m 0,0 c 0,-28 -11,-51 -11,-51 0,0 -11,23 -11,51 0,28 11,51 11,51 C -11,51 0,28 0,0" /></g><g
           transform="translate(498,136)"
           id="g4485"><path
             id="path4487"
             style="fill:#37ab9c;fill-opacity:1;fill-rule:nonzero;stroke:none"
             d="m 0,0 c 18,-18 25,-39 25,-39 0,0 -21,8 -39,25 -18,18 -25,39 -25,39 0,0 21,-8 39,-25" /></g><g
           transform="translate(549,136)"
           id="g4489"><path
             id="path4491"
             style="fill:#37ab9c;fill-opacity:1;fill-rule:nonzero;stroke:none"
             d="m 0,0 c -18,-18 -25,-39 -25,-39 0,0 21,8 39,25 C 32,4 39,25 39,25 39,25 18,18 0,0" /></g><g
           transform="translate(539,74)"
           id="g4493"><path
             id="path4495"
             style="fill:#37ab9c;fill-opacity:1;fill-rule:nonzero;stroke:none"
             d="m 0,0 c -11,11 -15,24 -15,24 0,0 13,-5 24,-15 11,-11 15,-24 15,-24 0,0 -13,5 -24,15" /></g><g
           transform="translate(508,74)"
           id="g4497"><path
             id="path4499"
             style="fill:#37ab9c;fill-opacity:1;fill-rule:nonzero;stroke:none"
             d="m 0,0 c 11,11 15,24 15,24 0,0 -13,-5 -24,-15 -11,-11 -15,-24 -15,-24 0,0 13,5 24,15" /></g><g
           transform="translate(488,104)"
           id="g4501"><path
             id="path4503"
             style="fill:#37ab9c;fill-opacity:1;fill-rule:nonzero;stroke:none"
             d="m 0,0 c 20,0 35,-8 35,-8 0,0 -16,-8 -35,-8 -20,0 -35,8 -35,8 0,0 16,8 35,8" /></g><g
           transform="translate(559,104)"
           id="g4505"><path
             id="path4507"
             style="fill:#37ab9c;fill-opacity:1;fill-rule:nonzero;stroke:none"
             d="m 0,0 c 20,0 35,-8 35,-8 0,0 -16,-8 -35,-8 -20,0 -35,8 -35,8 0,0 16,8 35,8" /></g><g
           transform="translate(522,96)"
           id="g4509"><path
             id="path4511"
             style="fill:#37ab9c;fill-opacity:1;fill-rule:nonzero;stroke:none"
             d="M 0,0 -3,-39 2,-50 6,-39 3,0 0,0 Z" /></g><g
           transform="translate(524,199)"
           id="g4513"><path
             id="path4515"
             style="fill:#100f0d;fill-opacity:1;fill-rule:nonzero;stroke:none"
             d="m 0,0 -3,-94 -62,57 58,-62 -64,-3 62,-4 -31,-35 37,35 2,-47 1,48 38,-36 -32,36 64,3 L 8,-99 65,-38 3,-94 0,0 Z" /></g></g></g></g></svg>
