<?xml version="1.0" encoding="UTF-8" standalone="no"?>
<svg
   xmlns:ns0="http://purl.org/dc/elements/1/"
   xmlns:ns="http://www.w3org/1999/2/22-rdf-syntax-ns#"
   xmlns:dc="http://purl.org/dc/elements/1.1/"
   xmlns:cc="http://creativecommons.org/ns#"
   xmlns:rdf="http://www.w3.org/1999/02/22-rdf-syntax-ns#"
   xmlns:svg="http://www.w3.org/2000/svg"
   xmlns="http://www.w3.org/2000/svg"
   xmlns:sodipodi="http://sodipodi.sourceforge.net/DTD/sodipodi-0.dtd"
   xmlns:inkscape="http://www.inkscape.org/namespaces/inkscape"
   viewBox="0 0 600 600"
   height="600"
   width="600"
   xml:space="preserve"
   version="1"
   id="svg4155"
   inkscape:version="0.91 r"
   sodipodi:docname="scro-leaf.svg"><sodipodi:namedview
     pagecolor="#ffffff"
     bordercolor="#666666"
     borderopacity="1"
     objecttolerance="10"
     gridtolerance="10"
     guidetolerance="10"
     inkscape:pageopacity="0"
     inkscape:pageshadow="2"
     inkscape:window-width="1360"
     inkscape:window-height="708"
     id="namedview56"
     showgrid="false"
     showguides="true"
     inkscape:guide-bbox="true"
     inkscape:zoom="0.66950355"
     inkscape:cx="308.6945"
     inkscape:cy="358.41993"
     inkscape:window-x="0"
     inkscape:window-y="0"
     inkscape:window-maximized="1"
     inkscape:current-layer="svg4155" /><metadata
     id="metadata4161"><ns:RDF><cc:Work
         ns:about=""><ns0:format>image/svg+xml</ns0:format><ns0:type
           ns:resource="http://purl.org/dc/dcmitype/StillImage" /><ns0:title /></cc:Work></ns:RDF><rdf:RDF><cc:Work
         rdf:about=""><dc:format>image/svg+xml</dc:format><dc:type
           rdf:resource="http://purl.org/dc/dcmitype/StillImage" /><dc:title></dc:title></cc:Work></rdf:RDF></metadata><defs
     id="defs4159"><clipPath
       id="clipPath4169"
       clipPathUnits="userSpaceOnUse"><path
         id="path4171"
         d="M 0,564 452,564 452,0 0,0 0,564 Z"
         inkscape:connector-curvature="0" /></clipPath></defs><g
     transform="matrix(1,0,0,-1,74.682203,594.53178)"
     id="g4163"><g
       id="g4165"><g
         clip-path="url(#clipPath4169)"
         id="g4167"><g
           transform="translate(418,346)"
           id="g4173"><path
             id="path4175"
             style="fill:#2b3931;fill-opacity:1;fill-rule:nonzero;stroke:none"
             d="m 0,0 c 0,-106 -86,-193 -193,-193 -106,0 -193,86 -193,193 0,106 86,193 193,193 C -86,193 0,106 0,0"
             inkscape:connector-curvature="0" /></g><g
           transform="translate(253,408)"
           id="g4177"><path
             id="path4179"
             style="fill:#ffffff;fill-opacity:1;fill-rule:nonzero;stroke:none"
             d="m 0,0 c 0,-71 -27,-129 -27,-129 0,0 -27,58 -27,129 0,71 27,129 27,129 0,0 27,-58 27,-129"
             inkscape:connector-curvature="0" /></g><g
           transform="translate(162,379)"
           id="g4181"><path
             id="path4183"
             style="fill:#ffffff;fill-opacity:1;fill-rule:nonzero;stroke:none"
             d="m 0,0 c 45,-45 64,-99 64,-99 0,0 -54,19 -99,64 -45,45 -64,99 -64,99 0,0 54,-19 99,-64"
             inkscape:connector-curvature="0" /></g><g
           transform="translate(290,379)"
           id="g4185"><path
             id="path4187"
             style="fill:#ffffff;fill-opacity:1;fill-rule:nonzero;stroke:none"
             d="m 0,0 c -45,-45 -64,-99 -64,-99 0,0 54,19 99,64 C 80,10 99,64 99,64 99,64 45,45 0,0"
             inkscape:connector-curvature="0" /></g><g
           transform="translate(265,222)"
           id="g4189"><path
             id="path4191"
             style="fill:#ffffff;fill-opacity:1;fill-rule:nonzero;stroke:none"
             d="M 0,0 C -27,27 -39,60 -39,60 -39,60 -6,48 21,21 48,-6 60,-39 60,-39 60,-39 27,-27 0,0"
             inkscape:connector-curvature="0" /></g><g
           transform="translate(185,222)"
           id="g4193"><path
             id="path4195"
             style="fill:#ffffff;fill-opacity:1;fill-rule:nonzero;stroke:none"
             d="M 0,0 C 27,27 39,60 39,60 39,60 6,48 -21,21 -48,-6 -60,-39 -60,-39 c 0,0 33,12 60,39"
             inkscape:connector-curvature="0" /></g><g
           transform="translate(135,300)"
           id="g4197"><path
             id="path4199"
             style="fill:#ffffff;fill-opacity:1;fill-rule:nonzero;stroke:none"
             d="m 0,0 c 50,0 90,-19 90,-19 0,0 -40,-19 -90,-19 -50,0 -90,19 -90,19 0,0 40,19 90,19"
             inkscape:connector-curvature="0" /></g><g
           transform="translate(316,300)"
           id="g4201"><path
             id="path4203"
             style="fill:#ffffff;fill-opacity:1;fill-rule:nonzero;stroke:none"
             d="m 0,0 c 50,0 90,-19 90,-19 0,0 -40,-19 -90,-19 -50,0 -90,19 -90,19 0,0 40,19 90,19"
             inkscape:connector-curvature="0" /></g><g
           transform="translate(221,279)"
           id="g4205"><path
             id="path4207"
             style="fill:#ffffff;fill-opacity:1;fill-rule:nonzero;stroke:none"
             d="M 0,0 -7,-98 5,-126 15,-98 8,0 0,0 Z"
             inkscape:connector-curvature="0" /></g><g
           transform="translate(226,539)"
           id="g4209"><path
             id="path4211"
             style="fill:#2b3931;fill-opacity:1;fill-rule:nonzero;stroke:none"
             d="m 0,0 -8,-239 -155,144 144,-156 -162,-7 165,-5 -85,-92 96,91 5,-121 3,121 96,-92 -81,91 162,7 -160,7 L 164,-95 8,-239 0,0 Z"
             inkscape:connector-curvature="0" /></g><g
           transform="translate(415,89)"
           id="g4213"><path
             id="path4215"
             style="fill:#2b3931;fill-opacity:1;fill-rule:nonzero;stroke:none"
             d="m 0,0 c 0,-31 -25,-57 -57,-57 -31,0 -57,25 -57,57 0,31 25,57 57,57 C -25,57 0,31 0,0"
             inkscape:connector-curvature="0" /></g><g
           transform="translate(367,107)"
           id="g4217"><path
             id="path4219"
             style="fill:#ffffff;fill-opacity:1;fill-rule:nonzero;stroke:none"
             d="m 0,0 c 0,-21 -8,-38 -8,-38 0,0 -8,17 -8,38 0,21 8,38 8,38 0,0 8,-17 8,-38"
             inkscape:connector-curvature="0" /></g><g
           transform="translate(340,99)"
           id="g4221"><path
             id="path4223"
             style="fill:#ffffff;fill-opacity:1;fill-rule:nonzero;stroke:none"
             d="m 0,0 c 13,-13 19,-29 19,-29 0,0 -16,6 -29,19 -13,13 -19,29 -19,29 0,0 16,-6 29,-19"
             inkscape:connector-curvature="0" /></g><g
           transform="translate(378,99)"
           id="g4225"><path
             id="path4227"
             style="fill:#ffffff;fill-opacity:1;fill-rule:nonzero;stroke:none"
             d="m 0,0 c -13,-13 -19,-29 -19,-29 0,0 16,6 29,19 C 24,3 29,19 29,19 29,19 13,13 0,0"
             inkscape:connector-curvature="0" /></g><g
           transform="translate(370,53)"
           id="g4229"><path
             id="path4231"
             style="fill:#ffffff;fill-opacity:1;fill-rule:nonzero;stroke:none"
             d="M 0,0 C -8,8 -11,18 -11,18 -11,18 -1,15 7,7 15,-1 18,-11 18,-11 18,-11 8,-8 0,0"
             inkscape:connector-curvature="0" /></g><g
           transform="translate(346,53)"
           id="g4233"><path
             id="path4235"
             style="fill:#ffffff;fill-opacity:1;fill-rule:nonzero;stroke:none"
             d="M 0,0 C 8,8 11,18 11,18 11,18 1,15 -7,7 c -8,-8 -11,-18 -11,-18 0,0 10,3 18,11"
             inkscape:connector-curvature="0" /></g><g
           transform="translate(332,76)"
           id="g4237"><path
             id="path4239"
             style="fill:#ffffff;fill-opacity:1;fill-rule:nonzero;stroke:none"
             d="m 0,0 c 15,0 26,-6 26,-6 0,0 -12,-6 -26,-6 -15,0 -26,6 -26,6 0,0 12,6 26,6"
             inkscape:connector-curvature="0" /></g><g
           transform="translate(385,76)"
           id="g4241"><path
             id="path4243"
             style="fill:#ffffff;fill-opacity:1;fill-rule:nonzero;stroke:none"
             d="m 0,0 c 15,0 26,-6 26,-6 0,0 -12,-6 -26,-6 -15,0 -26,6 -26,6 0,0 12,6 26,6"
             inkscape:connector-curvature="0" /></g><g
           transform="translate(357,70)"
           id="g4245"><path
             id="path4247"
             style="fill:#ffffff;fill-opacity:1;fill-rule:nonzero;stroke:none"
             d="m 0,0 -2,-29 4,-8 3,8 L 2,0 0,0 Z"
             inkscape:connector-curvature="0" /></g><g
           transform="translate(358,146)"
           id="g4249"><path
             id="path4251"
             style="fill:#2b3931;fill-opacity:1;fill-rule:nonzero;stroke:none"
             d="m 0,0 -2,-70 -46,42 42,-46 -48,-2 48,-2 -25,-27 28,27 2,-35 1,35 28,-27 -24,27 48,2 -47,2 43,46 L 2,-70 0,0 Z"
             inkscape:connector-curvature="0" /></g><g
           transform="translate(212,106)"
           id="g4253"><path
             id="path4255"
             style="fill:#2b3931;fill-opacity:1;fill-rule:nonzero;stroke:none"
             d="m 0,0 -30,0 c -6,8 -13,11 -21,11 -7,0 -13,-3 -19,-8 -5,-5 -8,-12 -8,-20 0,-8 3,-15 8,-20 5,-5 11,-8 19,-8 9,0 16,4 21,11 l 30,0 c -6,-13 -12,-22 -20,-28 -8,-6 -19,-10 -31,-10 -15,0 -27,5 -38,16 -10,11 -15,24 -15,40 0,15 5,28 16,39 10,10 23,15 37,15 13,0 23,-3 32,-10 6,-6 13,-15 19,-28"
             inkscape:connector-curvature="0" /></g><g
           transform="translate(41,71)"
           id="g4257"><path
             id="path4259"
             style="fill:#2b3931;fill-opacity:1;fill-rule:nonzero;stroke:none"
             d="m 0,0 c 4,-5 8,-8 13,-11 4,-2 8,-4 12,-4 4,0 7,1 9,3 2,2 4,5 4,8 0,3 -1,6 -3,8 -2,2 -7,4 -14,6 -10,3 -18,6 -22,11 -4,4 -6,11 -6,18 0,10 3,18 10,25 7,6 15,10 26,10 6,0 11,-1 16,-2 5,-2 10,-4 15,-7 L 51,44 c -3,3 -7,5 -10,6 -3,1 -7,2 -10,2 -3,0 -6,-1 -8,-2 -2,-2 -3,-4 -3,-6 0,-3 1,-5 3,-6 2,-2 6,-3 11,-5 l 1,0 c 12,-3 19,-7 23,-10 2,-3 4,-6 6,-9 1,-4 2,-8 2,-12 0,-11 -4,-20 -11,-27 -7,-7 -17,-10 -29,-10 -7,0 -14,1 -20,4 -6,2 -12,6 -17,12 L 0,0 Z"
             inkscape:connector-curvature="0" /></g><g
           transform="translate(246,92)"
           id="g4261"><path
             id="path4263"
             style="fill:#2b3931;fill-opacity:1;fill-rule:nonzero;stroke:none"
             d="m 0,0 6,0 c 6,0 11,1 14,3 3,2 4,6 4,10 0,6 -1,9 -4,12 -3,2 -7,4 -14,4 L 0,29 0,0 Z m -28,-58 0,110 31,0 c 12,0 21,-1 26,-2 5,-1 9,-3 13,-6 4,-3 7,-7 9,-12 2,-5 3,-10 3,-15 C 54,9 52,2 48,-3 43,-8 37,-12 29,-14 l 30,-44 -34,0 -25,43 0,-43 -28,0 z"
             inkscape:connector-curvature="0" /></g></g></g></g></svg>